<?xml version="1.0" encoding="UTF-8"?>
<svg width="112px" height="53px" viewBox="0 0 112 53" version="1.1" xmlns="http://www.w3.org/2000/svg" xmlns:xlink="http://www.w3.org/1999/xlink">
    <!-- Generator: Sketch 42 (36781) - http://www.bohemiancoding.com/sketch -->
    <title>logo-white</title>
    <desc>Created with Sketch.</desc>
    <defs>
        <polygon id="path-1" points="111.837993 0.405490196 111.837993 51.574902 0 51.574902 0 0.405490196 111.837993 0.405490196"></polygon>
    </defs>
    <g id="🔸-Images" stroke="none" stroke-width="1" fill="none" fill-rule="evenodd">
        <g id="logo-white">
            <g id="toogethr-(2)">
                <path d="M24.4705882,48.181842 C22.5819036,49.8854382 19.8334383,52.7058824 13.4788101,52.7058824 C7.12543153,52.7058824 0.941176471,48.6925074 0.941176471,40.3395106 C0.941176471,31.9848597 7.12543153,28.2352941 13.650433,28.2352941 C20.1783503,28.2352941 22.9255659,31.6441405 23.6120573,32.3259925 L18.4604554,36.588291 C17.9447537,36.0763851 16.3988982,34.542735 13.650433,34.542735 C10.9023843,34.542735 8.73918635,36.588291 8.73918635,40.3395106 C8.73918635,44.0874222 10.9023843,46.1350456 13.650433,46.1350456 C16.3988982,46.1350456 16.9137668,45.2832475 16.9137668,45.2832475 L16.9137668,43.5767569 L13.3071872,43.5767569 L13.3071872,37.8833549 L24.4705882,37.8833549 L24.4705882,48.181842" id="Fill-1" fill="#FFFFFF"></path>
                <polyline id="Fill-2" fill="#FFFFFF" points="43.2941176 51.7647059 26.3529412 51.7647059 26.3529412 28.2352941 42.9555324 28.2352941 42.9555324 34.3063331 33.9760391 34.3063331 33.9760391 36.8625383 42.4456001 36.8625383 42.4456001 42.9017333 33.9760391 42.9017333 33.9760391 45.6266704 43.2941176 45.6266704 43.2941176 51.7647059"></polyline>
                <polyline id="Fill-3" fill="#FFFFFF" points="64 34.2364417 58.4303299 34.2364417 58.4303299 51.7647059 50.7109263 51.7647059 50.7109263 34.2364417 45.1764706 34.2364417 45.1764706 28.2352941 64 28.2352941 64 34.2364417"></polyline>
                <g id="Group-8">
                    <mask id="mask-2" fill="white">
                        <use xlink:href="#path-1"></use>
                    </mask>
                    <g id="Clip-5"></g>
                    <polyline id="Fill-4" fill="#FFFFFF" mask="url(#mask-2)" points="88.2332694 51.574902 80.5300664 51.574902 80.5300664 42.9371802 74.1233358 42.9371802 74.1233358 51.574902 66.4213727 51.574902 66.4213727 28.2006723 74.1233358 28.2006723 74.1233358 36.6687208 80.5300664 36.6687208 80.5300664 28.2006723 88.2332694 28.2006723 88.2332694 51.574902"></polyline>
                    <path d="M101.852221,34.3997012 C101.512502,34.1293744 100.999616,33.9609337 100.150731,33.9609337 L98.2058155,33.9609337 L98.2058155,38.0244631 L100.150731,38.0244631 C100.999616,38.0244631 101.547218,37.8556116 101.852221,37.6189729 C102.227483,37.3478245 102.70524,37.0088889 102.70524,35.9920822 C102.70524,34.9756863 102.194421,34.6371615 101.852221,34.3997012 Z M111.838406,51.574902 L102.977181,51.574902 L99.2295203,43.7839029 L98.2405314,43.7839029 L98.2405314,51.574902 L90.5377417,51.574902 L90.5377417,28.2006723 L100.762391,28.2006723 C103.659513,28.2006723 105.873476,28.7080486 107.578273,29.8949393 C109.28183,31.0805976 110.475395,33.1129785 110.475395,35.6531466 C110.475395,40.3966013 107.578273,42.0896359 106.555808,42.7013632 L111.838406,51.574902 L111.838406,51.574902 Z" id="Fill-6" fill="#FFFFFF" mask="url(#mask-2)"></path>
                    <polyline id="Fill-7" fill="#FFFFFF" mask="url(#mask-2)" points="18.7771513 6.36746965 13.221786 6.36746965 13.221786 23.7813632 5.51899631 23.7813632 5.51899631 6.36746965 0 6.36746965 0 0.405490196 18.7771513 0.405490196 18.7771513 6.36746965"></polyline>
                </g>
                <path d="M31.0586194,17.1838308 C28.3258302,17.1838308 26.1094704,14.9695122 26.1094704,12.2354982 C26.1094704,9.50189255 28.3258302,7.28553273 31.0586194,7.28553273 C33.7926333,7.28553273 36.0081767,9.50189255 36.0081767,12.2354982 C36.0081767,14.9695122 33.7926333,17.1838308 31.0586194,17.1838308 Z M31.0586194,0 C24.3029881,0 18.8235294,5.47782574 18.8235294,12.2354982 C18.8235294,18.9927625 24.3029881,24.4705882 31.0586194,24.4705882 C37.8167001,24.4705882 43.2941176,18.9927625 43.2941176,12.2354982 C43.2941176,5.47782574 37.8167001,0 31.0586194,0 L31.0586194,0 Z" id="Fill-9" fill="#FFFFFF"></path>
                <path d="M49.8813324,17.1838308 C47.1491338,17.1838308 44.9325136,14.9695122 44.9325136,12.2354982 C44.9325136,9.50189255 47.1491338,7.28553273 49.8813324,7.28553273 C52.6139392,7.28553273 54.8313758,9.50189255 54.8313758,12.2354982 C54.8313758,14.9695122 52.6139392,17.1838308 49.8813324,17.1838308 Z M49.8813324,0 C43.1253355,0 37.6470588,5.47782574 37.6470588,12.2354982 C37.6470588,18.9927625 43.1253355,24.4705882 49.8813324,24.4705882 C56.6410033,24.4705882 62.1176471,18.9927625 62.1176471,12.2354982 C62.1176471,5.47782574 56.6410033,0 49.8813324,0 L49.8813324,0 Z" id="Fill-10" fill="#FFFFFF"></path>
            </g>
        </g>
    </g>
</svg>